<svg width="40" height="40" viewBox="0 0 40 40" fill="none" xmlns="http://www.w3.org/2000/svg">
<mask id="mask0_17_341" style="mask-type:alpha" maskUnits="userSpaceOnUse" x="0" y="0" width="40" height="40">
<rect width="40" height="40" fill="#D9D9D9"/>
</mask>
<g mask="url(#mask0_17_341)">
<path d="M4.99996 16.6665C4.52774 16.6665 4.13218 16.4998 3.81329 16.1665C3.49329 15.8331 3.36107 15.4442 3.41662 14.9998C3.61107 13.1665 4.09051 11.4092 4.85496 9.72813C5.61829 8.04813 6.62496 6.54146 7.87496 5.20813C8.18051 4.90257 8.5694 4.7498 9.04163 4.7498C9.51385 4.7498 9.91663 4.91646 10.25 5.2498C10.5555 5.55535 10.7083 5.93035 10.7083 6.3748C10.7083 6.81924 10.5555 7.22202 10.25 7.58313C9.27774 8.63869 8.49329 9.78424 7.89662 11.0198C7.29885 12.2565 6.91662 13.5831 6.74996 14.9998C6.6944 15.472 6.50718 15.8676 6.18829 16.1865C5.86829 16.5065 5.47218 16.6665 4.99996 16.6665ZM35 16.6665C34.5555 16.6665 34.1666 16.5065 33.8333 16.1865C33.5 15.8676 33.3055 15.472 33.25 14.9998C33.0833 13.5831 32.7016 12.2565 32.105 11.0198C31.5072 9.78424 30.7222 8.63869 29.75 7.58313C29.4444 7.22202 29.2916 6.81924 29.2916 6.3748C29.2916 5.93035 29.4583 5.55535 29.7916 5.2498C30.125 4.91646 30.5205 4.7498 30.9783 4.7498C31.4372 4.7498 31.8194 4.90257 32.125 5.20813C33.375 6.54146 34.3822 8.04813 35.1466 9.72813C35.91 11.4092 36.3888 13.1665 36.5833 14.9998C36.6388 15.4442 36.5066 15.8331 36.1866 16.1665C35.8677 16.4998 35.4722 16.6665 35 16.6665ZM8.33329 31.6665C7.86107 31.6665 7.46496 31.5065 7.14496 31.1865C6.82607 30.8676 6.66662 30.472 6.66662 29.9998C6.66662 29.5276 6.82607 29.132 7.14496 28.8131C7.46496 28.4931 7.86107 28.3331 8.33329 28.3331H9.99996V16.6665C9.99996 14.3609 10.6944 12.312 12.0833 10.5198C13.4722 8.72868 15.2777 7.55535 17.5 6.9998V5.83313C17.5 5.13869 17.7433 4.54869 18.23 4.06313C18.7155 3.57646 19.3055 3.33313 20 3.33313C20.6944 3.33313 21.2844 3.57646 21.77 4.06313C22.2566 4.54869 22.5 5.13869 22.5 5.83313V6.9998C24.7222 7.55535 26.5277 8.72868 27.9166 10.5198C29.3055 12.312 30 14.3609 30 16.6665V28.3331H31.6666C32.1388 28.3331 32.5344 28.4931 32.8533 28.8131C33.1733 29.132 33.3333 29.5276 33.3333 29.9998C33.3333 30.472 33.1733 30.8676 32.8533 31.1865C32.5344 31.5065 32.1388 31.6665 31.6666 31.6665H8.33329ZM20 36.6665C19.0833 36.6665 18.2988 36.3404 17.6466 35.6881C16.9933 35.0348 16.6666 34.2498 16.6666 33.3331H23.3333C23.3333 34.2498 23.0072 35.0348 22.355 35.6881C21.7016 36.3404 20.9166 36.6665 20 36.6665ZM13.3333 28.3331H26.6666V16.6665C26.6666 14.8331 26.0138 13.2637 24.7083 11.9581C23.4027 10.6526 21.8333 9.9998 20 9.9998C18.1666 9.9998 16.5972 10.6526 15.2916 11.9581C13.9861 13.2637 13.3333 14.8331 13.3333 16.6665V28.3331Z" fill="#1C1B1F"/>
</g>
</svg>
